<svg width="30" height="30" viewBox="0 0 30 30" fill="none" xmlns="http://www.w3.org/2000/svg">
<path d="M29.1273 26.4282L29.13 26.4306C29.1833 26.4775 29.2261 26.5352 29.2554 26.5998C29.2847 26.6645 29.2999 26.7346 29.3 26.8056V28.165C29.3 28.2976 29.2473 28.4248 29.1536 28.5186C29.0598 28.6123 28.9326 28.665 28.8 28.665H1C0.867393 28.665 0.740216 28.6123 0.646447 28.5186C0.552678 28.4248 0.5 28.2976 0.5 28.165V26.8054C0.500126 26.7345 0.515331 26.6644 0.544608 26.5998C0.573921 26.5352 0.616666 26.4775 0.67 26.4306L0.670043 26.4307L0.676005 26.4253C1.65919 25.5331 2.51872 24.5135 3.23177 23.3935L3.24443 23.3736L3.25517 23.3527C4.05126 21.7959 4.52841 20.0959 4.65861 18.3522L4.66 18.3336V18.315L4.66 13.375L4.66 13.374C4.65497 10.8806 5.55374 8.46979 7.18984 6.58819C8.82594 4.70659 11.0885 3.48166 13.5585 3.14029L13.99 3.08065V2.645V1.335C13.99 1.11354 14.078 0.901159 14.2346 0.744566C14.3912 0.587973 14.6035 0.5 14.825 0.5C15.0465 0.5 15.2588 0.587973 15.4154 0.744566C15.572 0.901159 15.66 1.11354 15.66 1.335V2.625V3.06518L16.0966 3.12097C18.5889 3.43939 20.8792 4.65695 22.537 6.54489C24.1949 8.43284 25.1063 10.8612 25.1 13.3737V13.375V18.315V18.3336L25.1014 18.3522C25.2316 20.0959 25.7087 21.7959 26.5048 23.3527L26.5164 23.3752L26.5301 23.3965C27.2559 24.519 28.1295 25.5387 29.1273 26.4282ZM1.73261 26.8054L0.842766 27.665H2.08H27.73H28.9672L28.0774 26.8054C27.1801 25.9386 26.3896 24.9678 25.7226 23.9136C24.7994 22.1772 24.2597 20.2628 24.14 18.2999V13.3833C24.1807 12.1472 23.9728 10.9155 23.5286 9.76111C23.0834 8.60409 22.4099 7.54849 21.5482 6.65718C20.6866 5.76586 19.6544 5.05706 18.5131 4.57297C17.3718 4.08888 16.1447 3.83941 14.905 3.83941C13.6653 3.83941 12.4382 4.08888 11.2969 4.57297C10.1556 5.05706 9.12343 5.76586 8.26176 6.65718C7.4001 7.54849 6.72661 8.60409 6.2814 9.76111C5.83721 10.9155 5.62932 12.1472 5.67 13.3833V18.2999C5.55028 20.2628 5.01059 22.1772 4.08741 23.9136C3.4204 24.9678 2.62987 25.9386 1.73261 26.8054Z" fill="#F8F8F8" stroke="white"/>
</svg>
