<svg width="32" height="29" viewBox="0 0 32 29" fill="none" xmlns="http://www.w3.org/2000/svg">
<path d="M28.9091 28.5462L18.7273 19.3058C17.8182 19.9659 16.7727 20.4884 15.5909 20.8734C14.4091 21.2584 13.1515 21.4509 11.8182 21.4509C8.51515 21.4509 5.72 20.4125 3.43273 18.3356C1.14545 16.2587 0.00121212 13.722 0 10.7255C0 7.72783 1.14424 5.19112 3.43273 3.11533C5.72121 1.03954 8.51636 0.00110005 11.8182 0C15.1212 0 17.9164 1.03844 20.2036 3.11533C22.4909 5.19222 23.6352 7.72893 23.6364 10.7255C23.6364 11.9355 23.4242 13.0768 23 14.1494C22.5758 15.2219 22 16.1707 21.2727 16.9957L31.5 26.2774C31.8333 26.5799 32 26.9512 32 27.3912C32 27.8312 31.8182 28.2162 31.4545 28.5462C31.1212 28.8487 30.697 29 30.1818 29C29.6667 29 29.2424 28.8487 28.9091 28.5462ZM11.8182 18.1508C14.0909 18.1508 16.023 17.4286 17.6145 15.9842C19.2061 14.5399 20.0012 12.787 20 10.7255C20 8.66287 19.2042 6.9094 17.6127 5.46503C16.0212 4.02067 14.0897 3.29904 11.8182 3.30014C9.54545 3.30014 7.61333 4.02232 6.02182 5.46669C4.4303 6.91105 3.63515 8.66397 3.63636 10.7255C3.63636 12.7881 4.43212 14.5415 6.02364 15.9859C7.61515 17.4302 9.54667 18.1519 11.8182 18.1508Z" fill="#F8F8F8"/>
</svg>
